<?xml version="1.0" encoding="UTF-8"?>
<svg id="Logo" xmlns="http://www.w3.org/2000/svg" viewBox="0 0 383.21 104.37">
  <defs>
    <style>
      .cls-1 {
        fill: #f5f5f5;
      }
    </style>
  </defs>
  <path class="cls-1" d="M62.32,39.76c.86,0,1.28.43,1.28,1.28v6.28c0,.86-.43,1.28-1.28,1.28h-18.99c-6.21,0-7.78,1.57-7.78,7.57v21.2c0,1.07-.5,1.57-1.57,1.57h-7c-1.07,0-1.57-.5-1.57-1.57v-23.2c0-10.5,4.36-14.42,16.92-14.42h19.99Z"/>
  <path class="cls-1" d="M101.09,39.76h-30.77c-.86,0-1.28.43-1.28,1.28v6.28c0,.86.43,1.28,1.28,1.28h29.77c6.14,0,7.85,1.64,7.85,6.21v.71h-29.13c-7.71,0-11,3.21-11,9.85v3.43c0,7.35,2.78,10.14,11,10.14h33.98c4.21,0,5.28-1.14,5.28-5.71v-19.06c0-10.5-4.35-14.42-16.99-14.42ZM107.94,67.75c0,1.71-.64,2.36-2.21,2.36h-23.92c-3.07,0-3.93-.64-3.93-3.07v-1.5c0-2.14.86-3,3.93-3h26.13v5.21Z"/>
  <path class="cls-1" d="M167.99,39.76c.86,0,1.28.43,1.28,1.28v6.28c0,.86-.43,1.28-1.28,1.28h-27.7c-6.21,0-7.78,1.57-7.78,7.57v6.35c0,6,1.57,7.57,7.78,7.57h27.7c.86,0,1.28.43,1.28,1.28v6.28c0,.86-.43,1.28-1.28,1.28h-28.7c-12.64,0-16.99-3.86-16.99-14.42v-10.35c0-10.5,4.36-14.42,16.99-14.42h28.7Z"/>
  <path class="cls-1" d="M182.05,70.11c1.07,0,1.57.44,1.57,1.39v6.07c0,.95-.5,1.39-1.57,1.39h-7c-1.07,0-1.57-.44-1.57-1.39v-6.07c0-.95.5-1.39,1.57-1.39h7Z"/>
  <path class="cls-1" d="M231.6,39.76v-12.78c0-1.07.57-1.57,1.57-1.57h7c1.07,0,1.57.5,1.57,1.57v37.55c0,10.57-4.36,14.42-16.99,14.42h-19.99c-12.57,0-16.92-3.86-16.92-14.42v-10.35c0-10.5,4.36-14.42,16.92-14.42h26.84ZM231.6,62.54v-13.92h-25.85c-6.14,0-7.78,1.5-7.78,7.57v6.35c0,6.07,1.64,7.57,7.78,7.57h17.99c6.14,0,7.85-1.5,7.85-7.57Z"/>
  <path class="cls-1" d="M283.86,39.76h-20.92c-12.64,0-16.99,3.93-16.99,14.42v10.35c0,10.57,4.36,14.42,16.99,14.42h30.77c.86,0,1.28-.43,1.28-1.28v-6.28c0-.86-.43-1.28-1.28-1.28h-29.77c-6.14,0-7.85-1.5-7.85-6v-1.29h36.06c2.86,0,4.07-1.07,4.07-4v-7.35c0-8.85-2.78-11.71-12.35-11.71ZM286.14,54.91c0,.82-.36,1.27-1.21,1.27h-28.84v-1.5c0-4.72,1.5-6.07,7.85-6.07h17.85c3.5,0,4.35.75,4.35,3.67v2.62Z"/>
  <path class="cls-1" d="M309.87,39.76c.86,0,1.36.29,1.71,1l16.92,28.92c.29.43.36.43.71.43h.36c.36,0,.5,0,.71-.43l16.85-28.92c.36-.71.79-1,1.64-1h7.85c1,0,1.43.86,1,1.78l-19.56,34.2c-1.28,2.36-2.86,3.21-6,3.21h-5.78c-3.21,0-4.64-.86-5.93-3.21l-19.71-34.2c-.57-.93-.07-1.78.93-1.78h8.28Z"/>
</svg>